# xmcd
#
# Track frame offsets:
#	150
#	20002
#	34657
#	51207
#	65835
#	83207
#	100505
#	121270
#	140262
#	163347
#	177647
#	196695
#	218315
#	232830
#
# Disc length: 3282 seconds
# Revision: 0
# Processed by: cddbd v1.5.2PL0 Copyright (c) Steve Scherf et al.
# Submitted via: dBpowerAMP V12.0
#
DISCID=b70cd00e
DTITLE=Lena Horne - The Men In My Life
DYEAR=1988
DGENRE=Vocal
TTITLE0=I Wish I'd Met You
TTITLE1=Ours
TTITLE2=Everytime We Say Goodbye
TTITLE3=A Fine Romance
TTITLE4=Roundabout
TTITLE5=September Song
TTITLE6=Joy
TTITLE7=Close Enough For Love
TTITLE8=I Wont Leave You Again
TTITLE9=The Eagle And Me
TTITLE10=When I Fall In Love
TTITLE11=Look To The Rainbow
TTITLE12=It Could Happen To You
TTITLE13=Sing My Heart
EXTD=
EXTT0=
EXTT1=
EXTT2=
EXTT3=
EXTT4=
EXTT5=
EXTT6=
EXTT7=
EXTT8=
EXTT9=
EXTT10=
EXTT11=
EXTT12=
EXTT13=
PLAYORDER=
